<svg width="16" height="16" viewBox="0 0 16 16" fill="none" xmlns="http://www.w3.org/2000/svg">
<path fill-rule="evenodd" clip-rule="evenodd" d="M1 16H16V9H1V16Z" fill="#64AB75"/>
<path fill-rule="evenodd" clip-rule="evenodd" d="M7 1L3 5H7V1Z" fill="#9AA7B0" fill-opacity="0.8"/>
<path fill-rule="evenodd" clip-rule="evenodd" d="M8 1V6H3V8H13V1H8Z" fill="#9AA7B0" fill-opacity="0.8"/>
<path d="M1.35566 10.2568H2.58613C2.9748 10.2568 3.26875 10.2871 3.46797 10.3477C3.66914 10.4082 3.83125 10.5312 3.9543 10.7168C4.07734 10.9004 4.13887 11.1973 4.13887 11.6074C4.13887 11.8848 4.09492 12.0781 4.00703 12.1875C3.92109 12.2969 3.7502 12.3809 3.49434 12.4395C3.77949 12.5039 3.97285 12.6113 4.07441 12.7617C4.17598 12.9102 4.22676 13.1387 4.22676 13.4473V13.8867C4.22676 14.207 4.18965 14.4443 4.11543 14.5986C4.04316 14.7529 3.92695 14.8584 3.7668 14.915C3.60664 14.9717 3.27852 15 2.78242 15H1.35566V10.2568ZM2.58906 11.0684V12.123C2.6418 12.1211 2.68281 12.1201 2.71211 12.1201C2.8332 12.1201 2.91035 12.0908 2.94355 12.0322C2.97676 11.9717 2.99336 11.8008 2.99336 11.5195C2.99336 11.3711 2.97969 11.2676 2.95234 11.209C2.925 11.1484 2.88887 11.1104 2.84395 11.0947C2.80098 11.0791 2.71602 11.0703 2.58906 11.0684ZM2.58906 12.8613V14.1885C2.76289 14.1826 2.87324 14.1553 2.92012 14.1064C2.96895 14.0576 2.99336 13.9375 2.99336 13.7461V13.3037C2.99336 13.1006 2.97188 12.9775 2.92891 12.9346C2.88594 12.8916 2.77266 12.8672 2.58906 12.8613ZM4.97207 10.2568H6.21426C6.5502 10.2568 6.80801 10.2832 6.9877 10.3359C7.16934 10.3887 7.30508 10.4648 7.39492 10.5645C7.48672 10.6641 7.54824 10.7852 7.57949 10.9277C7.6127 11.0684 7.6293 11.2871 7.6293 11.584V11.9971C7.6293 12.2998 7.59805 12.5205 7.53555 12.6592C7.47305 12.7979 7.35781 12.9043 7.18984 12.9785C7.02383 13.0527 6.80605 13.0898 6.53652 13.0898H6.20547V15H4.97207V10.2568ZM6.20547 11.0684V12.2754C6.24063 12.2773 6.2709 12.2783 6.29629 12.2783C6.40957 12.2783 6.4877 12.251 6.53066 12.1963C6.57559 12.1396 6.59805 12.0234 6.59805 11.8477V11.458C6.59805 11.2959 6.57266 11.1904 6.52188 11.1416C6.47109 11.0928 6.36563 11.0684 6.20547 11.0684ZM12.0895 10.2568V15H11.0113V11.7979L10.5807 15H9.81602L9.36191 11.8711V15H8.28379V10.2568H9.88047C9.92734 10.542 9.97715 10.8779 10.0299 11.2646L10.1998 12.4717L10.4811 10.2568H12.0895ZM15.6385 10.2568V15H14.5574L13.9158 12.8438V15H12.8846V10.2568H13.9158L14.6072 12.3926V10.2568H15.6385Z" fill="#231F20" fill-opacity="0.7"/>
<path d="M1.35566 10.2568V10.1568H1.25566V10.2568H1.35566ZM3.46797 10.3477L3.43889 10.4433L3.43915 10.4434L3.46797 10.3477ZM3.9543 10.7168L3.87096 10.7721L3.87123 10.7725L3.9543 10.7168ZM4.00703 12.1875L3.92908 12.1249L3.9284 12.1257L4.00703 12.1875ZM3.49434 12.4395L3.47201 12.342L3.47229 12.537L3.49434 12.4395ZM4.07441 12.7617L3.99154 12.8177L3.99188 12.8182L4.07441 12.7617ZM4.11543 14.5986L4.02531 14.5553L4.02487 14.5562L4.11543 14.5986ZM1.35566 15H1.25566V15.1H1.35566V15ZM2.58906 11.0684L2.5906 10.9684L2.48906 10.9668V11.0684H2.58906ZM2.58906 12.123H2.48906V12.2268L2.59276 12.223L2.58906 12.123ZM2.94355 12.0322L3.03057 12.0815L3.03124 12.0803L2.94355 12.0322ZM2.95234 11.209L2.8612 11.2501L2.86173 11.2513L2.95234 11.209ZM2.84395 11.0947L2.80977 11.1887L2.81109 11.1892L2.84395 11.0947ZM2.58906 12.8613L2.59225 12.7614L2.48906 12.7581V12.8613H2.58906ZM2.58906 14.1885H2.48906V14.2919L2.59243 14.2884L2.58906 14.1885ZM2.92012 14.1064L2.84939 14.0357L2.84798 14.0372L2.92012 14.1064ZM1.35566 10.3568H2.58613V10.1568H1.35566V10.3568ZM2.58613 10.3568C2.97192 10.3568 3.25401 10.3871 3.43889 10.4433L3.49705 10.252C3.28349 10.1871 2.97769 10.1568 2.58613 10.1568V10.3568ZM3.43915 10.4434C3.61658 10.4968 3.75997 10.6047 3.87096 10.7721L4.03764 10.6615C3.90253 10.4578 3.7217 10.3196 3.49679 10.2519L3.43915 10.4434ZM3.87123 10.7725C3.97725 10.9307 4.03887 11.2026 4.03887 11.6074H4.23887C4.23887 11.192 4.17744 10.8701 4.03737 10.6611L3.87123 10.7725ZM4.03887 11.6074C4.03887 11.8809 3.9942 12.0438 3.92908 12.1249L4.08498 12.2501C4.19564 12.1124 4.23887 11.8887 4.23887 11.6074H4.03887ZM3.9284 12.1257C3.86459 12.2069 3.72274 12.2846 3.47201 12.342L3.51666 12.5369C3.77765 12.4772 3.9776 12.3868 4.08566 12.2493L3.9284 12.1257ZM3.47229 12.537C3.74704 12.5991 3.91077 12.6981 3.99154 12.8177L4.15729 12.7058C4.03493 12.5246 3.81194 12.4087 3.51638 12.3419L3.47229 12.537ZM3.99188 12.8182C4.0765 12.9419 4.12676 13.146 4.12676 13.4473H4.32676C4.32676 13.1314 4.27545 12.8784 4.15694 12.7053L3.99188 12.8182ZM4.12676 13.4473V13.8867H4.32676V13.4473H4.12676ZM4.12676 13.8867C4.12676 14.2029 4.08956 14.4217 4.02531 14.5553L4.20555 14.642C4.28974 14.4669 4.32676 14.2112 4.32676 13.8867H4.12676ZM4.02487 14.5562C3.96393 14.6863 3.86828 14.7731 3.73345 14.8208L3.80014 15.0093C3.98563 14.9437 4.1224 14.8195 4.20599 14.641L4.02487 14.5562ZM3.73345 14.8208C3.6657 14.8447 3.55393 14.8652 3.39199 14.8791C3.23182 14.893 3.02888 14.9 2.78242 14.9V15.1C3.03206 15.1 3.24122 15.0929 3.40919 15.0784C3.57536 15.064 3.70774 15.042 3.80014 15.0093L3.73345 14.8208ZM2.78242 14.9H1.35566V15.1H2.78242V14.9ZM1.45566 15V10.2568H1.25566V15H1.45566ZM2.48906 11.0684V12.123H2.68906V11.0684H2.48906ZM2.59276 12.223C2.64507 12.221 2.68465 12.2201 2.71211 12.2201V12.0201C2.68097 12.0201 2.63852 12.0211 2.58536 12.0231L2.59276 12.223ZM2.71211 12.2201C2.84033 12.2201 2.96889 12.1903 3.03056 12.0815L2.85655 11.9829C2.85181 11.9913 2.82607 12.0201 2.71211 12.0201V12.2201ZM3.03124 12.0803C3.05884 12.03 3.07222 11.9529 3.08044 11.8683C3.08919 11.7783 3.09336 11.6616 3.09336 11.5195H2.89336C2.89336 11.6587 2.88923 11.7681 2.88138 11.849C2.87299 11.9353 2.86148 11.9739 2.85587 11.9841L3.03124 12.0803ZM3.09336 11.5195C3.09336 11.3707 3.08052 11.2472 3.04296 11.1667L2.86173 11.2513C2.87886 11.288 2.89336 11.3715 2.89336 11.5195H3.09336ZM3.04348 11.1678C3.00943 11.0924 2.95656 11.028 2.8768 11.0003L2.81109 11.1892C2.82117 11.1927 2.84057 11.2044 2.86121 11.2501L3.04348 11.1678ZM2.87812 11.0007C2.81701 10.9785 2.71552 10.9703 2.5906 10.9684L2.58752 11.1683C2.71651 11.1703 2.78494 11.1797 2.80977 11.1887L2.87812 11.0007ZM2.48906 12.8613V14.1885H2.68906V12.8613H2.48906ZM2.59243 14.2884C2.68307 14.2854 2.76174 14.2766 2.82625 14.2606C2.88866 14.2452 2.9496 14.2201 2.99226 14.1757L2.84798 14.0372C2.84376 14.0416 2.82609 14.0546 2.77815 14.0665C2.73231 14.0779 2.66889 14.0857 2.58569 14.0885L2.59243 14.2884ZM2.99083 14.1772C3.03623 14.1318 3.05958 14.0659 3.07305 13.9997C3.08711 13.9305 3.09336 13.8452 3.09336 13.7461H2.89336C2.89336 13.8384 2.8874 13.9089 2.87705 13.9598C2.86611 14.0137 2.85284 14.0323 2.84941 14.0357L2.99083 14.1772ZM3.09336 13.7461V13.3037H2.89336V13.7461H3.09336ZM3.09336 13.3037C3.09336 13.1995 3.08791 13.1115 3.07576 13.0419C3.06454 12.9776 3.04454 12.9088 2.99962 12.8639L2.8582 13.0053C2.85624 13.0033 2.86847 13.0175 2.87874 13.0763C2.88807 13.1297 2.89336 13.2048 2.89336 13.3037H3.09336ZM2.99962 12.8639C2.95693 12.8212 2.89385 12.7994 2.83279 12.7863C2.76789 12.7723 2.68701 12.7644 2.59225 12.7614L2.58587 12.9613C2.6747 12.9641 2.74227 12.9714 2.79065 12.9818C2.81473 12.987 2.83204 12.9925 2.8439 12.9976C2.85612 13.0029 2.8592 13.0063 2.8582 13.0053L2.99962 12.8639ZM4.97207 10.2568V10.1568H4.87207V10.2568H4.97207ZM6.9877 10.3359L6.95954 10.4319L6.95981 10.432L6.9877 10.3359ZM7.39492 10.5645L7.32066 10.6314L7.32139 10.6322L7.39492 10.5645ZM7.57949 10.9277L7.4818 10.9491L7.48217 10.9507L7.57949 10.9277ZM7.18984 12.9785L7.14943 12.887L7.14903 12.8872L7.18984 12.9785ZM6.20547 13.0898V12.9898H6.10547V13.0898H6.20547ZM6.20547 15V15.1H6.30547V15H6.20547ZM4.97207 15H4.87207V15.1H4.97207V15ZM6.20547 11.0684V10.9684H6.10547V11.0684H6.20547ZM6.20547 12.2754H6.10547V12.37L6.19992 12.3752L6.20547 12.2754ZM6.53066 12.1963L6.45231 12.1341L6.45203 12.1345L6.53066 12.1963ZM4.97207 10.3568H6.21426V10.1568H4.97207V10.3568ZM6.21426 10.3568C6.54694 10.3568 6.79352 10.3832 6.95954 10.4319L7.01586 10.24C6.8225 10.1832 6.55345 10.1568 6.21426 10.1568V10.3568ZM6.95981 10.432C7.13058 10.4815 7.24738 10.5502 7.32067 10.6314L7.46918 10.4975C7.36277 10.3795 7.20809 10.2958 7.01558 10.2399L6.95981 10.432ZM7.32139 10.6322C7.40024 10.7178 7.45405 10.8225 7.48181 10.9491L7.67717 10.9063C7.64243 10.7478 7.5732 10.6103 7.46846 10.4967L7.32139 10.6322ZM7.48217 10.9507C7.51257 11.0795 7.5293 11.2885 7.5293 11.584H7.7293C7.7293 11.2857 7.71282 11.0573 7.67682 10.9048L7.48217 10.9507ZM7.5293 11.584V11.9971H7.7293V11.584H7.5293ZM7.5293 11.9971C7.5293 12.2969 7.49774 12.4997 7.44438 12.6181L7.62672 12.7003C7.69836 12.5413 7.7293 12.3027 7.7293 11.9971H7.5293ZM7.44438 12.6181C7.39402 12.7298 7.29976 12.8206 7.14943 12.887L7.23026 13.07C7.41586 12.988 7.55208 12.8659 7.62672 12.7003L7.44438 12.6181ZM7.14903 12.8872C7.00051 12.9536 6.79818 12.9898 6.53652 12.9898V13.1898C6.81393 13.1898 7.04715 13.1518 7.23066 13.0698L7.14903 12.8872ZM6.53652 12.9898H6.20547V13.1898H6.53652V12.9898ZM6.10547 13.0898V15H6.30547V13.0898H6.10547ZM6.20547 14.9H4.97207V15.1H6.20547V14.9ZM5.07207 15V10.2568H4.87207V15H5.07207ZM6.10547 11.0684V12.2754H6.30547V11.0684H6.10547ZM6.19992 12.3752C6.23628 12.3773 6.2685 12.3783 6.29629 12.3783V12.1783C6.2733 12.1783 6.24497 12.1774 6.21102 12.1755L6.19992 12.3752ZM6.29629 12.3783C6.4211 12.3783 6.53805 12.3487 6.6093 12.2581L6.45203 12.1345C6.43734 12.1532 6.39804 12.1783 6.29629 12.1783V12.3783ZM6.60901 12.2584C6.64588 12.2119 6.66683 12.1506 6.67938 12.0856C6.69225 12.0191 6.69805 11.9392 6.69805 11.8477H6.49805C6.49805 11.9319 6.49261 11.998 6.48302 12.0477C6.47311 12.0989 6.46037 12.124 6.45231 12.1341L6.60901 12.2584ZM6.69805 11.8477V11.458H6.49805V11.8477H6.69805ZM6.69805 11.458C6.69805 11.3725 6.69143 11.2971 6.67623 11.2339C6.66129 11.1719 6.63589 11.1125 6.59119 11.0695L6.45256 11.2137C6.45865 11.2195 6.47132 11.2373 6.48178 11.2807C6.49197 11.323 6.49805 11.3814 6.49805 11.458H6.69805ZM6.59119 11.0695C6.54759 11.0276 6.48888 11.0035 6.42724 10.9892C6.3645 10.9747 6.28989 10.9684 6.20547 10.9684V11.1684C6.28121 11.1684 6.3394 11.1742 6.38214 11.1841C6.42596 11.1942 6.44538 11.2068 6.45256 11.2137L6.59119 11.0695ZM12.0895 10.2568H12.1895V10.1568H12.0895V10.2568ZM12.0895 15V15.1H12.1895V15H12.0895ZM11.0113 15H10.9113V15.1H11.0113V15ZM11.0113 11.7979H11.1113L10.9122 11.7845L11.0113 11.7979ZM10.5807 15V15.1H10.6681L10.6798 15.0133L10.5807 15ZM9.81602 15L9.71705 15.0144L9.72948 15.1H9.81602V15ZM9.36191 11.8711L9.46088 11.8567L9.26191 11.8711H9.36191ZM9.36191 15V15.1H9.46191V15H9.36191ZM8.28379 15H8.18379V15.1H8.28379V15ZM8.28379 10.2568V10.1568H8.18379V10.2568H8.28379ZM9.88047 10.2568L9.97914 10.2406L9.96537 10.1568H9.88047V10.2568ZM10.0299 11.2646L9.9308 11.2782L9.93086 11.2786L10.0299 11.2646ZM10.1998 12.4717L10.1008 12.4856L10.299 12.4843L10.1998 12.4717ZM10.4811 10.2568V10.1568H10.393L10.3819 10.2442L10.4811 10.2568ZM11.9895 10.2568V15H12.1895V10.2568H11.9895ZM12.0895 14.9H11.0113V15.1H12.0895V14.9ZM11.1113 15V11.7979H10.9113V15H11.1113ZM10.9122 11.7845L10.4816 14.9867L10.6798 15.0133L11.1104 11.8112L10.9122 11.7845ZM10.5807 14.9H9.81602V15.1H10.5807V14.9ZM9.91498 14.9856L9.46088 11.8567L9.26295 11.8855L9.71705 15.0144L9.91498 14.9856ZM9.26191 11.8711V15H9.46191V11.8711H9.26191ZM9.36191 14.9H8.28379V15.1H9.36191V14.9ZM8.38379 15V10.2568H8.18379V15H8.38379ZM8.28379 10.3568H9.88047V10.1568H8.28379V10.3568ZM9.78179 10.2731C9.82848 10.5571 9.87815 10.8921 9.9308 11.2782L10.129 11.2511C10.0761 10.8638 10.0262 10.5269 9.97914 10.2406L9.78179 10.2731ZM9.93086 11.2786L10.1008 12.4856L10.2988 12.4577L10.1289 11.2507L9.93086 11.2786ZM10.299 12.4843L10.5803 10.2694L10.3819 10.2442L10.1006 12.4591L10.299 12.4843ZM10.4811 10.3568H12.0895V10.1568H10.4811V10.3568ZM15.6385 10.2568H15.7385V10.1568H15.6385V10.2568ZM15.6385 15V15.1H15.7385V15H15.6385ZM14.5574 15L14.4616 15.0285L14.4828 15.1H14.5574V15ZM13.9158 12.8438L14.0117 12.8152L13.8158 12.8438H13.9158ZM13.9158 15V15.1H14.0158V15H13.9158ZM12.8846 15H12.7846V15.1H12.8846V15ZM12.8846 10.2568V10.1568H12.7846V10.2568H12.8846ZM13.9158 10.2568L14.011 10.226L13.9886 10.1568H13.9158V10.2568ZM14.6072 12.3926L14.5121 12.4234L14.7072 12.3926H14.6072ZM14.6072 10.2568V10.1568H14.5072V10.2568H14.6072ZM15.5385 10.2568V15H15.7385V10.2568H15.5385ZM15.6385 14.9H14.5574V15.1H15.6385V14.9ZM14.6533 14.9715L14.0117 12.8152L13.82 12.8723L14.4616 15.0285L14.6533 14.9715ZM13.8158 12.8438V15H14.0158V12.8438H13.8158ZM13.9158 14.9H12.8846V15.1H13.9158V14.9ZM12.9846 15V10.2568H12.7846V15H12.9846ZM12.8846 10.3568H13.9158V10.1568H12.8846V10.3568ZM13.8207 10.2876L14.5121 12.4234L14.7024 12.3618L14.011 10.226L13.8207 10.2876ZM14.7072 12.3926V10.2568H14.5072V12.3926H14.7072ZM14.6072 10.3568H15.6385V10.1568H14.6072V10.3568Z" fill="#64AB75"/>
</svg>
