<svg width="16" height="16" viewBox="0 0 16 16" fill="none" xmlns="http://www.w3.org/2000/svg">
<path d="M15 3.33333C15 2.04467 13.9554 1 12.6667 1H3.33333C2.04467 1 1 2.04467 1 3.33333V12.6667C1 13.9554 2.04467 15 3.33333 15H12.6667C13.9554 15 15 13.9554 15 12.6667V3.33333Z" fill="#64AB75"/>
<path d="M3.58064 7.165C3.81064 7.20833 3.99731 7.29333 4.14064 7.42C4.28731 7.54667 4.36064 7.73667 4.36064 7.99C4.36064 8.36 4.22731 8.62167 3.96064 8.775C3.69731 8.925 3.32731 9 2.85064 9H1.73564V5.535H2.71564C3.20231 5.535 3.57398 5.605 3.83064 5.745C4.08731 5.88167 4.21564 6.10667 4.21564 6.42C4.21564 6.62333 4.15398 6.78833 4.03064 6.915C3.91064 7.03833 3.76064 7.12167 3.58064 7.165ZM2.55564 6.115V6.92H2.86064C3.20731 6.92 3.38064 6.78 3.38064 6.5C3.38064 6.36 3.33398 6.26167 3.24064 6.205C3.14731 6.145 2.99898 6.115 2.79564 6.115H2.55564ZM2.85564 8.405C3.07231 8.405 3.23564 8.37333 3.34564 8.31C3.45898 8.24333 3.51564 8.12167 3.51564 7.945C3.51564 7.625 3.31564 7.465 2.91564 7.465H2.55564V8.405H2.85564ZM5.94158 5.535C6.39825 5.535 6.75325 5.63 7.00658 5.82C7.25992 6.01 7.38658 6.29167 7.38658 6.665C7.38658 7.055 7.26158 7.35 7.01158 7.55C6.76492 7.74667 6.43325 7.845 6.01658 7.845H5.64158V9H4.82158V5.535H5.94158ZM5.94658 7.255C6.13992 7.255 6.28658 7.21 6.38658 7.12C6.48992 7.02667 6.54158 6.875 6.54158 6.665C6.54158 6.30167 6.33825 6.12 5.93158 6.12H5.64158V7.255H5.94658ZM11.1083 9H10.3033L10.2433 7.645C10.2266 7.32167 10.2183 7.03333 10.2183 6.78C10.2183 6.58667 10.2233 6.40333 10.2333 6.23L9.69826 8.635H8.92326L8.35326 6.23C8.37326 6.52 8.38326 6.79333 8.38326 7.05C8.38326 7.24333 8.37826 7.445 8.36826 7.655L8.30826 9H7.50826L7.76826 5.535H8.80326L9.32326 7.885L9.80826 5.535H10.8483L11.1083 9ZM14.2689 9H13.2239L12.2239 6.315C12.2573 6.57833 12.2823 6.81167 12.2989 7.015C12.3189 7.215 12.3289 7.45333 12.3289 7.73V9H11.5989V5.535H12.6189L13.6439 8.225C13.5706 7.76833 13.5339 7.33833 13.5339 6.935V5.535H14.2689V9Z" fill="#D9D9D9"/>
<rect x="1.72998" y="10" width="12.54" height="1" fill="#D9D9D9"/>
</svg>
