<svg width="16" height="16" viewBox="0 0 16 16" fill="none" xmlns="http://www.w3.org/2000/svg">
<path d="M14 4C14 2.89543 13.1046 2 12 2H4C2.89543 2 2 2.89543 2 4V12C2 13.1046 2.89543 14 4 14H12C13.1046 14 14 13.1046 14 12V4Z" fill="#64AB75"/>
<path d="M5.23011 11V3.72727H8.26278C8.80729 3.72727 9.26302 3.80421 9.62997 3.9581C9.99929 4.11198 10.2763 4.32741 10.4609 4.6044C10.648 4.88139 10.7415 5.20218 10.7415 5.56676C10.7415 5.84375 10.6835 6.09115 10.5675 6.30895C10.4515 6.52438 10.2917 6.70312 10.0881 6.84517C9.88447 6.98722 9.64891 7.08665 9.38139 7.14347V7.21449C9.67495 7.22869 9.94602 7.308 10.1946 7.45241C10.4455 7.59683 10.6468 7.79806 10.7983 8.05611C10.9498 8.31179 11.0256 8.61482 11.0256 8.9652C11.0256 9.35582 10.9261 9.70502 10.7273 10.0128C10.5284 10.3182 10.2408 10.5597 9.86435 10.7372C9.48793 10.9124 9.03101 11 8.49361 11H5.23011ZM6.98793 9.5831H8.07457C8.45573 9.5831 8.73627 9.51089 8.91619 9.36648C9.09849 9.22206 9.18963 9.02083 9.18963 8.76278C9.18963 8.57576 9.14583 8.41477 9.05824 8.27983C8.97064 8.14252 8.84635 8.03717 8.68537 7.96378C8.52438 7.88802 8.33144 7.85014 8.10653 7.85014H6.98793V9.5831ZM6.98793 6.71733H7.96094C8.1527 6.71733 8.32315 6.68537 8.4723 6.62145C8.62145 6.55753 8.73745 6.4652 8.82031 6.34446C8.90554 6.22372 8.94815 6.07812 8.94815 5.90767C8.94815 5.66383 8.86174 5.47206 8.68892 5.33239C8.5161 5.19271 8.28291 5.12287 7.98935 5.12287H6.98793V6.71733Z" fill="#D9D9D9"/>
<rect x="5" y="12" width="6" height="1" fill="#D9D9D9"/>
</svg>
